#!OML:ASF F:\VICON\USERDATA\INSTALL\Justin_Nancy\Justin_Nancy.ASF
:FULLY-SPECIFIED
:DEGREES
48
root 0.314212 16.7628 -11.5268 4.01756 -4.52785 -1.65557
lowerback 13.7273 -1.53048 -0.246358
upperback 0.858527 -1.81383 3.64511
thorax -6.6691 -0.825818 4.3629
lowerneck -22.6553 -2.65473 -8.27334
upperneck 12.0275 -1.96253 5.30627
head 7.51066 -0.80595 2.85206
rclavicle 6.36111e-015 -3.10104e-014
rhumerus -43.1134 17.0772 -95.2735
rradius 116.523
rwrist -14.1874
rhand -3.57582 19.9707
rfingers 7.12502
rthumb 22.1612 -8.7791
lclavicle 6.36111e-015 -3.10104e-014
lhumerus -45.8587 -6.54778 97.3088
lradius 109.312
lwrist 23.5916
lhand -23.9251 13.0834
lfingers 7.12502
lthumb 2.54971 43.0479
rfemur -23.2518 3.52669 29.5984
rtibia 45.8296
rfoot -17.9343 -12.4593
rtoes -6.04908
lfemur -12.8074 0.821583 -14.9916
ltibia 86.9206
lfoot 17.7779 -7.61433
ltoes 1.84766
49
root 0.286191 16.795 -11.1461 4.13805 -3.37713 -1.23774
lowerback 13.462 -1.54665 -0.500057
upperback 0.817081 -1.88234 3.56072
thorax -6.55445 -0.85435 4.41899
lowerneck -22.5959 -2.94692 -8.59519
upperneck 12.1304 -2.34292 5.74093
head 7.57282 -0.961038 3.00262
rclavicle -1.72943e-014 1.27222e-014
rhumerus -42.2189 16.2106 -94.8259
rradius 117.163
rwrist -13.6939
rhand -3.31718 20.5388
rfingers 7.12502
rthumb 22.4095 -8.18127
lclavicle -1.72943e-014 1.27222e-014
lhumerus -45.9462 -6.54224 97.4961
lradius 109.256
lwrist 23.9189
lhand -24.7979 14.4884
lfingers 7.12502
lthumb 1.70672 44.4614
rfemur -21.8065 2.65362 29.3059
rtibia 45.7236
rfoot -18.97 -13.3181
rtoes -5.73969
lfemur -15.4976 0.866802 -14.9188
ltibia 88.5645
lfoot 17.2391 -7.15574
ltoes 4.43015
50
root 0.265536 16.8129 -10.7735 4.16069 -2.50437 -0.834512
lowerback 13.2408 -1.42951 -0.771898
upperback 0.802689 -1.77474 3.48574
thorax -6.44855 -0.796428 4.46433
lowerneck -22.2671 -3.17796 -8.76937
upperneck 11.998 -2.65572 5.90073
head 7.50398 -1.10604 3.04297
rclavicle -9.74045e-015 4.77083e-015
rhumerus -41.9143 15.2451 -94.3434
rradius 117.942
rwrist -13.0739
rhand -3.41002 22.0626
rfingers 7.12502
rthumb 22.3204 -6.66818
lclavicle -9.74045e-015 4.77083e-015
lhumerus -46.1268 -6.54717 97.8311
lradius 109.314
lwrist 23.8847
lhand -25.588 15.3463
lfingers 7.12502
lthumb 0.943698 45.324
rfemur -20.2399 1.85488 28.9868
rtibia 45.3815
rfoot -19.552 -13.8342
rtoes -5.94547
lfemur -17.9415 1.20789 -15.0271
ltibia 89.8894
lfoot 16.3934 -7.00748
ltoes 3.66641
51
root 0.246894 16.8546 -10.394 4.23728 -1.73357 -0.727598
lowerback 13.0212 -1.23719 -0.735918
upperback 0.763638 -1.51625 3.46683
thorax -6.38971 -0.671556 4.36887
lowerneck -22.3523 -3.45354 -8.62383
upperneck 12.181 -3.04623 5.76265
head 7.60418 -1.2989 2.92272
rclavicle 5.1684e-015 3.18055e-015
rhumerus -41.7458 14.2804 -93.7846
rradius 118.771
rwrist -12.764
rhand -3.5213 22.5752
rfingers 7.12502
rthumb 22.2136 -6.16838
lclavicle 5.1684e-015 3.18055e-015
lhumerus -46.3957 -6.7525 98.1487
lradius 109.4
lwrist 23.6265
lhand -25.8074 15.1987
lfingers 7.12502
lthumb 0.731774 45.1772
rfemur -18.6072 1.28675 28.9482
rtibia 44.6462
rfoot -19.5121 -14.0233
rtoes -5.55209
lfemur -20.1719 1.6967 -14.8978
ltibia 90.7098
lfoot 15.1376 -7.12603
ltoes 2.51816
52
root 0.225949 16.9138 -10.012 4.37613 -1.09071 -0.938965
lowerback 12.7964 -0.957352 -0.346961
upperback 0.710425 -1.08815 3.479
thorax -6.36156 -0.47253 4.07674
lowerneck -22.8698 -3.88128 -8.56201
upperneck 12.8511 -3.60419 5.67994
head 7.95266 -1.56647 2.81185
rclavicle -1.45113e-014 5.40694e-014
rhumerus -41.2771 13.3123 -93.1063
rradius 119.599
rwrist -12.8493
rhand -3.53998 21.8703
rfingers 7.12502
rthumb 22.1957 -6.87535
lclavicle -1.45113e-014 5.40694e-014
lhumerus -46.4614 -7.29254 98.4226
lradius 109.415
lwrist 23.6426
lhand -26.4073 15.1454
lfingers 7.12502
lthumb 0.152344 45.1251
rfemur -17.0203 1.2863 29.2437
rtibia 43.7062
rfoot -19.0363 -13.8316
rtoes -3.36795
lfemur -22.3351 2.34994 -14.4574
ltibia 91.184
lfoot 13.3731 -7.52884
ltoes 1.12736
53
root 0.203564 16.9659 -9.63403 4.39719 -0.663777 -1.44226
lowerback 12.627 -0.615252 0.225805
upperback 0.710315 -0.54838 3.56772
thorax -6.31032 -0.22372 3.74394
lowerneck -23.1901 -4.22586 -8.52506
upperneck 13.314 -4.05556 5.60487
head 8.19301 -1.78403 2.71794
rclavicle 2.5842e-015 5.56597e-015
rhumerus -40.767 12.3649 -92.4387
rradius 120.32
rwrist -13.0012
rhand -3.82422 21.5971
rfingers 7.12502
rthumb 21.9228 -7.18076
lclavicle 2.5842e-015 5.56597e-015
lhumerus -46.4704 -7.83237 98.6446
lradius 109.632
lwrist 23.8227
lhand -26.9667 15.3559
lfingers 7.12502
lthumb -0.387949 45.3353
rfemur -15.0077 1.75349 29.8854
rtibia 42.5031
rfoot -18.6641 -13.7997
rtoes -4.63672
lfemur -24.5582 3.27942 -13.7436
ltibia 91.4381
lfoot 11.6272 -8.24496
ltoes 1.94437
